<svg width="18" height="18" viewBox="0 0 18 18" fill="none" xmlns="http://www.w3.org/2000/svg">
<g clip-path="url(#clip0_1579_36878)">
<path d="M8.99609 12C10.6529 12 11.9961 10.6569 11.9961 9C11.9961 7.34315 10.6529 6 8.99609 6C7.33924 6 5.99609 7.34315 5.99609 9C5.99609 10.6569 7.33924 12 8.99609 12Z" stroke="black" stroke-width="1.5" stroke-linecap="round" stroke-linejoin="round"/>
<path d="M11.9961 6.00002V9.75002C11.9961 10.3468 12.2332 10.9191 12.6551 11.341C13.0771 11.763 13.6494 12 14.2461 12C14.8428 12 15.4151 11.763 15.8371 11.341C16.259 10.9191 16.4961 10.3468 16.4961 9.75002V9.00002C16.496 7.30729 15.9233 5.66438 14.8711 4.33842C13.8188 3.01246 12.349 2.08144 10.7006 1.69675C9.05215 1.31205 7.32205 1.4963 5.79161 2.21955C4.26117 2.94279 3.0204 4.16249 2.27104 5.68032C1.52169 7.19814 1.30783 8.92483 1.66423 10.5796C2.02063 12.2344 2.92633 13.7199 4.23407 14.7947C5.54181 15.8695 7.17468 16.4703 8.86715 16.4994C10.5596 16.5285 12.2122 15.9842 13.5561 14.955" stroke="black" stroke-width="1.5" stroke-linecap="round" stroke-linejoin="round"/>
</g>
<defs>
<clipPath id="clip0_1579_36878">
<rect width="18" height="18" fill="white"/>
</clipPath>
</defs>
</svg>
