<svg width="18" height="18" viewBox="0 0 18 18" fill="none" xmlns="http://www.w3.org/2000/svg">
<path fill-rule="evenodd" clip-rule="evenodd" d="M16 18H2C0.89543 18 0 17.1046 0 16V2C0 0.89543 0.89543 0 2 0H16C17.1046 0 18 0.89543 18 2V16C18 17.1046 17.1046 18 16 18ZM5.44235 15.5H2.75814V6.83333H5.44235V15.5ZM15.5 15.5H12.8289V10.9505C12.8289 9.70319 12.3549 9.00613 11.3677 9.00613C10.2937 9.00613 9.73252 9.73153 9.73252 10.9505V15.5H7.15833V6.83333H9.73252V8.00073C9.73252 8.00073 10.5065 6.56855 12.3456 6.56855C14.1839 6.56855 15.5 7.69112 15.5 10.0128V15.5ZM2.5 4.09925C2.5 4.98241 3.21051 5.6985 4.08734 5.6985C4.96416 5.6985 5.67425 4.98241 5.67425 4.09925C5.67425 3.21609 4.96416 2.5 4.08734 2.5C3.21051 2.5 2.5 3.21609 2.5 4.09925Z" fill="black"/>
</svg>
