<svg width="18" height="18" viewBox="0 0 18 18" fill="none" xmlns="http://www.w3.org/2000/svg">
<path d="M15.7487 9.5925C15.6307 10.8692 15.1516 12.0858 14.3674 13.1001C13.5832 14.1144 12.5263 14.8843 11.3205 15.3199C10.1146 15.7555 8.80969 15.8386 7.55833 15.5596C6.30697 15.2805 5.16095 14.6509 4.25437 13.7443C3.3478 12.8378 2.71816 11.6917 2.43914 10.4404C2.16011 9.18901 2.24324 7.88406 2.6788 6.67822C3.11436 5.47238 3.88433 4.41552 4.89861 3.63131C5.9129 2.8471 7.12955 2.36798 8.40621 2.25C7.65877 3.2612 7.29909 4.50709 7.3926 5.76106C7.48612 7.01503 8.0266 8.19379 8.91576 9.08295C9.80491 9.9721 10.9837 10.5126 12.2376 10.6061C13.4916 10.6996 14.7375 10.3399 15.7487 9.5925Z" stroke="black" stroke-width="2" stroke-linecap="round" stroke-linejoin="round"/>
</svg>
